<svg width="25" height="39" viewBox="0 0 25 39" fill="none" xmlns="http://www.w3.org/2000/svg">
<path d="M24.2175 4.10239C23.8932 3.60575 23.4194 3.59149 22.8795 3.57524C22.8183 3.57339 22.7563 3.57153 22.6936 3.56893C22.6458 3.56673 22.5931 3.56758 22.538 3.56846C22.319 3.57198 22.0629 3.57609 21.9339 3.39212C21.7843 3.17883 21.7985 2.76663 21.8102 2.42635C21.8139 2.31882 21.8173 2.21841 21.8153 2.13379C21.7943 1.34332 21.7504 0.503629 21.4453 0.222921C21.2152 0.0123107 20.5268 0.0414869 19.892 0.0683953C19.6862 0.0771183 19.486 0.0856034 19.3089 0.0856034H5.79596C5.52389 0.0856034 5.23869 0.0634485 4.95847 0.0416809C4.41245 -0.000734203 3.88532 -0.0416808 3.511 0.0856034C2.96774 0.271231 2.93096 1.24667 2.89632 2.16519L2.89446 2.21461C2.86538 2.97288 2.67746 3.55799 2.05465 3.49906C1.33028 3.43161 0.609496 3.41035 0.281986 4.06594C-0.10481 4.84161 -0.0250371 5.65358 0.117848 7.10792C0.138258 7.31567 0.159957 7.53652 0.181767 7.77225H24.4264C24.4403 7.59995 24.455 7.42986 24.4696 7.26253C24.5831 5.95406 24.682 4.81401 24.2175 4.10239Z" fill="#8047F8"/>
<path fill-rule="evenodd" clip-rule="evenodd" d="M2.51277 9.54804C2.89142 14.6728 3.26595 19.8035 3.64047 24.9342L3.6407 24.9374C3.84406 27.7232 4.04742 30.509 4.25144 33.294H5.02502C5.07774 33.7299 5.13806 34.2681 5.20165 34.8355C5.33074 35.9873 5.47335 37.2597 5.59325 38.0417H5.67881C6.46677 37.7534 11.9141 35.425 11.9165 26.1552C11.9155 26.1287 11.9164 26.1023 11.9191 26.0761H10.5733C10.5082 26.0755 10.445 26.0537 10.3936 26.0142C10.3422 25.9746 10.3053 25.9195 10.2887 25.8572C10.1575 25.5332 10.0518 25.1998 9.97239 24.8598C9.18068 25.3069 8.55196 25.9897 8.17586 26.8108C7.81884 25.9699 7.77211 25.0316 8.04384 24.1601C8.31556 23.2885 8.88846 22.539 9.66242 22.0427C9.6724 19.3377 10.6852 16.7302 12.509 14.7137L12.5375 14.6887C12.5905 14.6429 12.6584 14.6174 12.7288 14.6168C12.7695 14.6172 12.8097 14.6258 12.8468 14.6423C12.8844 14.659 12.918 14.6834 12.9455 14.7137C14.7907 16.7329 15.7981 19.3655 15.7668 22.0864C16.5552 22.569 17.1398 23.3179 17.412 24.1942C17.6842 25.0705 17.6256 26.0147 17.2471 26.8515C16.873 26.0291 16.2438 25.3457 15.4505 24.9004C15.4021 25.23 15.3128 25.5523 15.1848 25.8603C15.1406 25.9916 15.052 26.0761 14.9634 26.0761H13.5282C13.5305 26.0918 13.5321 26.1076 13.533 26.1234L13.5336 26.1271V26.1347C13.5341 26.1484 13.5341 26.1621 13.5336 26.1758C13.5533 35.7117 19.3449 37.8762 19.8331 38.0417H20.0001C20.0427 37.2906 20.1815 36.2542 20.3168 35.2438C20.41 34.5475 20.5016 33.8636 20.5589 33.294H21.3414C21.5919 29.786 21.8495 26.2879 22.1071 22.7898L22.1073 22.7879L22.1074 22.7868C22.4369 18.3123 22.7664 13.8376 23.081 9.34207H2.56288C2.50382 9.35361 2.50785 9.45022 2.51277 9.54804ZM12.7288 14.6168L12.7273 14.6168H12.7304L12.7288 14.6168Z" fill="#8047F8"/>
</svg>
